<?xml version="1.0" encoding="utf-8"?>
<!-- Generator: Adobe Illustrator 15.1.0, SVG Export Plug-In . SVG Version: 6.00 Build 0)  -->
<!DOCTYPE svg PUBLIC "-//W3C//DTD SVG 1.1//EN" "http://www.w3.org/Graphics/SVG/1.1/DTD/svg11.dtd">
<svg version="1.1" xmlns="http://www.w3.org/2000/svg" xmlns:xlink="http://www.w3.org/1999/xlink" x="0px" y="0px"
	 width="685.472px" height="124.719px" viewBox="0 0 685.472 124.719" enable-background="new 0 0 685.472 124.719"
	 xml:space="preserve">
<g id="Guides_For_Artboard_1_" display="none">
</g>
<g id="Guides_For_Artboard" display="none">
</g>
<g id="Word_To_Right" display="none">
	<g display="inline">
		<path d="M524.665,39.198c-17.009,0-30.798,13.789-30.798,30.798c0,17.008,13.789,30.798,30.798,30.798
			c13.057,0,24.209-8.131,28.688-19.599h-20.3c-2.338,1.755-5.239,2.798-8.388,2.798c-5.739,0-10.669-3.456-12.832-8.399h43.112
			c0.334-1.816,0.518-3.685,0.518-5.6C555.462,52.987,541.673,39.198,524.665,39.198z M511.834,64.396
			c2.162-4.943,7.091-8.399,12.832-8.399c5.741,0,10.67,3.454,12.832,8.399H511.834z"/>
		<path d="M656.256,27.998h-16.8v11.2h-11.198v16.8h11.198v13.998c0,17.008,13.789,30.798,30.797,30.798h8.4V83.993h-8.4
			c-7.731,0-13.997-6.269-13.997-13.997V55.998h22.397v-16.8h-22.397V27.998z"/>
		<path d="M782.245,39.198c-17.008,0-30.797,13.789-30.797,30.798c0,17.008,13.789,30.798,30.797,30.798
			c17.01,0,30.799-13.79,30.799-30.798C813.044,52.987,799.255,39.198,782.245,39.198z M782.245,83.994
			c-7.73,0-13.998-6.269-13.998-13.998s6.27-13.997,13.998-13.997c7.732,0,14,6.268,14,13.997S789.978,83.994,782.245,83.994z"/>
		<path d="M843.841,27.998h-16.799v11.2h-11.197v16.8h11.195v13.998c0,17.008,13.791,30.798,30.799,30.798h8.398V83.993h-8.398
			c-7.732,0-13.998-6.269-13.998-13.997V55.998h22.396v-16.8h-22.396V27.998L843.841,27.998z"/>
		<path d="M930.118,64.396h-43.111c2.16-4.943,7.092-8.399,12.832-8.399c3.146,0,6.049,1.045,8.387,2.799l18.086-4.521
			c-5.369-9.026-15.209-15.077-26.473-15.077c-17.01,0-30.799,13.788-30.799,30.797c0,1.913,0.184,3.782,0.518,5.6h43.111
			c-2.162,4.943-7.092,8.4-12.83,8.4c-3.15,0-6.051-1.045-8.389-2.799h-20.301c4.48,11.469,15.631,19.599,28.689,19.599
			c17.008,0,30.797-13.79,30.797-30.798C930.636,68.082,930.452,66.212,930.118,64.396z"/>
		<path d="M457.469,39.198c-5.042,0-9.797,1.22-13.998,3.367V16.801h-16.799v83.994h16.799v-3.369
			c4.202,2.147,8.956,3.369,13.998,3.369c17.01,0,30.798-13.791,30.798-30.799C488.267,52.987,474.479,39.198,457.469,39.198z
			 M457.469,83.994c-7.73,0-13.998-6.269-13.998-13.998s6.268-13.997,13.998-13.997c7.732,0,14,6.268,14,13.997
			S465.202,83.994,457.469,83.994z"/>
		<path d="M605.859,42.565c-4.202-2.147-8.957-3.367-13.998-3.367c-17.01,0-30.798,13.789-30.798,30.798
			c0,17.008,13.789,30.798,30.798,30.798c5.041,0,9.797-1.221,13.998-3.37v3.37h16.799V39.198h-16.799V42.565z M591.861,83.994
			c-7.732,0-13.998-6.269-13.998-13.998s6.266-13.997,13.998-13.997c7.728,0,13.992,6.261,13.998,13.987v0.02
			C605.853,77.733,599.588,83.994,591.861,83.994z"/>
		<path d="M715.05,39.198c-5.041,0-9.795,1.22-13.998,3.367V16.801h-16.799v83.994h16.799v-3.369
			c4.203,2.147,8.957,3.369,13.998,3.369c17.01,0,30.801-13.791,30.801-30.799C745.849,52.987,732.06,39.198,715.05,39.198z
			 M715.05,83.994c-7.729,0-13.998-6.269-13.998-13.998s6.269-13.997,13.998-13.997c7.732,0,14.004,6.268,14.004,13.997
			C729.05,77.726,722.78,83.994,715.05,83.994z"/>
	</g>
</g>
<g id="Word_To_Right_white" display="none">
	<g display="inline">
		<path fill="#F1F2F2" d="M524.665,39.198c-17.009,0-30.798,13.789-30.798,30.798c0,17.008,13.789,30.798,30.798,30.798
			c13.057,0,24.209-8.131,28.688-19.599h-20.3c-2.338,1.755-5.239,2.798-8.388,2.798c-5.739,0-10.669-3.456-12.832-8.399h43.112
			c0.334-1.816,0.518-3.685,0.518-5.6C555.462,52.987,541.673,39.198,524.665,39.198z M511.834,64.396
			c2.162-4.943,7.091-8.399,12.832-8.399c5.741,0,10.67,3.454,12.832,8.399H511.834z"/>
		<path fill="#F1F2F2" d="M656.256,27.998h-16.8v11.2h-11.198v16.8h11.198v13.998c0,17.008,13.789,30.798,30.797,30.798h8.4V83.993
			h-8.4c-7.731,0-13.997-6.269-13.997-13.997V55.998h22.397v-16.8h-22.397V27.998z"/>
		<path fill="#F1F2F2" d="M782.245,39.198c-17.008,0-30.797,13.789-30.797,30.798c0,17.008,13.789,30.798,30.797,30.798
			c17.01,0,30.799-13.79,30.799-30.798C813.044,52.987,799.255,39.198,782.245,39.198z M782.245,83.994
			c-7.73,0-13.998-6.269-13.998-13.998s6.27-13.997,13.998-13.997c7.732,0,14,6.268,14,13.997S789.978,83.994,782.245,83.994z"/>
		<path fill="#F1F2F2" d="M843.841,27.998h-16.799v11.2h-11.197v16.8h11.195v13.998c0,17.008,13.791,30.798,30.799,30.798h8.398
			V83.993h-8.398c-7.732,0-13.998-6.269-13.998-13.997V55.998h22.396v-16.8h-22.396V27.998L843.841,27.998z"/>
		<path fill="#F1F2F2" d="M930.118,64.396h-43.111c2.16-4.943,7.092-8.399,12.832-8.399c3.146,0,6.049,1.045,8.387,2.799
			l18.086-4.521c-5.369-9.026-15.209-15.077-26.473-15.077c-17.01,0-30.799,13.788-30.799,30.797c0,1.913,0.184,3.782,0.518,5.6
			h43.111c-2.162,4.943-7.092,8.4-12.83,8.4c-3.15,0-6.051-1.045-8.389-2.799h-20.301c4.48,11.469,15.631,19.599,28.689,19.599
			c17.008,0,30.797-13.79,30.797-30.798C930.636,68.082,930.452,66.212,930.118,64.396z"/>
		<path fill="#F1F2F2" d="M457.469,39.198c-5.042,0-9.797,1.22-13.998,3.367V16.801h-16.799v83.994h16.799v-3.369
			c4.202,2.147,8.956,3.369,13.998,3.369c17.01,0,30.798-13.791,30.798-30.799C488.267,52.987,474.479,39.198,457.469,39.198z
			 M457.469,83.994c-7.73,0-13.998-6.269-13.998-13.998s6.268-13.997,13.998-13.997c7.732,0,14,6.268,14,13.997
			S465.202,83.994,457.469,83.994z"/>
		<path fill="#F1F2F2" d="M605.859,42.565c-4.202-2.147-8.957-3.367-13.998-3.367c-17.01,0-30.798,13.789-30.798,30.798
			c0,17.008,13.789,30.798,30.798,30.798c5.041,0,9.797-1.221,13.998-3.37v3.37h16.799V39.198h-16.799V42.565z M591.861,83.994
			c-7.732,0-13.998-6.269-13.998-13.998s6.266-13.997,13.998-13.997c7.728,0,13.992,6.261,13.998,13.987v0.02
			C605.853,77.733,599.588,83.994,591.861,83.994z"/>
		<path fill="#F1F2F2" d="M715.05,39.198c-5.041,0-9.795,1.22-13.998,3.367V16.801h-16.799v83.994h16.799v-3.369
			c4.203,2.147,8.957,3.369,13.998,3.369c17.01,0,30.801-13.791,30.801-30.799C745.849,52.987,732.06,39.198,715.05,39.198z
			 M715.05,83.994c-7.729,0-13.998-6.269-13.998-13.998s6.269-13.997,13.998-13.997c7.732,0,14.004,6.268,14.004,13.997
			C729.05,77.726,722.78,83.994,715.05,83.994z"/>
	</g>
</g>
<g id="Word_Split">
	<g>
		<path d="M110.659,39.198c-17.009,0-30.798,13.789-30.798,30.798c0,17.008,13.789,30.798,30.798,30.798
			c13.057,0,24.209-8.131,28.688-19.599h-20.3c-2.338,1.755-5.239,2.798-8.388,2.798c-5.739,0-10.669-3.456-12.832-8.399h43.112
			c0.334-1.816,0.518-3.685,0.518-5.6C141.457,52.987,127.667,39.198,110.659,39.198z M97.828,64.396
			c2.162-4.943,7.091-8.399,12.832-8.399c5.741,0,10.67,3.454,12.832,8.399H97.828z"/>
		<path d="M242.25,27.998h-16.8v11.2h-11.198v16.8h11.198v13.998c0,17.008,13.789,30.798,30.797,30.798h8.4V83.993h-8.4
			c-7.731,0-13.997-6.269-13.997-13.997V55.998h22.397v-16.8H242.25V27.998z"/>
		<path d="M43.463,39.198c-5.042,0-9.797,1.22-13.998,3.367V16.801H12.667v83.994h16.799v-3.369
			c4.202,2.147,8.956,3.369,13.998,3.369c17.01,0,30.798-13.791,30.798-30.799C74.261,52.987,60.473,39.198,43.463,39.198z
			 M43.463,83.994c-7.73,0-13.998-6.269-13.998-13.998s6.268-13.997,13.998-13.997c7.732,0,14,6.268,14,13.997
			S51.196,83.994,43.463,83.994z"/>
		<path d="M191.853,42.565c-4.202-2.147-8.957-3.367-13.998-3.367c-17.01,0-30.798,13.789-30.798,30.798
			c0,17.008,13.789,30.798,30.798,30.798c5.041,0,9.797-1.221,13.998-3.37v3.37h16.799V39.198h-16.799V42.565z M177.855,83.994
			c-7.732,0-13.998-6.269-13.998-13.998s6.266-13.997,13.998-13.997c7.728,0,13.992,6.261,13.998,13.987v0.02
			C191.847,77.733,185.583,83.994,177.855,83.994z"/>
	</g>
	<g>
		<path d="M524.664,39.198c-17.008,0-30.797,13.789-30.797,30.798c0,17.008,13.789,30.798,30.797,30.798
			c17.01,0,30.799-13.79,30.799-30.798C555.463,52.987,541.674,39.198,524.664,39.198z M524.664,83.994
			c-7.73,0-13.998-6.269-13.998-13.998s6.27-13.997,13.998-13.997c7.732,0,14,6.268,14,13.997S532.396,83.994,524.664,83.994z"/>
		<path d="M586.26,27.998h-16.799v11.2h-11.197v16.8h11.195v13.998c0,17.008,13.791,30.798,30.799,30.798h8.398V83.993h-8.398
			c-7.732,0-13.998-6.269-13.998-13.997V55.998h22.396v-16.8H586.26V27.998L586.26,27.998z"/>
		<path d="M672.537,64.396h-43.111c2.16-4.943,7.092-8.399,12.832-8.399c3.146,0,6.049,1.045,8.387,2.799l18.086-4.521
			c-5.369-9.026-15.209-15.077-26.473-15.077c-17.01,0-30.799,13.788-30.799,30.797c0,1.913,0.184,3.782,0.518,5.6h43.111
			c-2.162,4.943-7.092,8.4-12.83,8.4c-3.15,0-6.051-1.045-8.389-2.799h-20.301c4.48,11.469,15.631,19.599,28.689,19.599
			c17.008,0,30.797-13.79,30.797-30.798C673.055,68.082,672.871,66.212,672.537,64.396z"/>
		<path d="M457.469,39.198c-5.041,0-9.795,1.22-13.998,3.367V16.801h-16.799v83.994h16.799v-3.369
			c4.203,2.147,8.957,3.369,13.998,3.369c17.01,0,30.801-13.791,30.801-30.799C488.268,52.987,474.479,39.198,457.469,39.198z
			 M457.469,83.994c-7.729,0-13.998-6.269-13.998-13.998s6.269-13.997,13.998-13.997c7.732,0,14.004,6.268,14.004,13.997
			C471.469,77.726,465.199,83.994,457.469,83.994z"/>
	</g>
</g>
<g id="Face__x28_Strokes_x29_" display="none">
	<g display="inline">
		<g>
			<path fill="#F7941E" d="M328.011,118.504c-0.818,0-1.649-0.007-2.481-0.021c-10.72-0.652-15.864-4.927-19.487-9.021
				c-0.211-0.262-18.193-23.016-21.973-62.84c-0.667-7.02,2.427-13.718,8.488-18.378c0.245-0.208,28.574-23.729,73.142-23.729
				c3.019,0,6.088,0.108,9.122,0.322c5.244,0.401,12.176,2.029,15.459,7.505c0.162,0.254,17.617,28.13,15.137,68.809
				c-0.314,5.171-1.686,8.502-5.06,12.288c-0.264,0.276-24.537,25.064-72.34,25.064
				C328.014,118.504,328.014,118.504,328.011,118.504z"/>
			<path d="M365.699,5.516c2.944,0,5.964,0.102,9.051,0.319c3.91,0.3,11.366,1.51,14.672,7.022c0,0,17.485,27.408,14.996,68.233
				c-0.299,4.913-1.557,8.034-4.808,11.684c0,0-23.665,24.729-71.6,24.729c-0.812,0-1.638-0.007-2.464-0.021
				c-10.876-0.663-15.702-5.232-18.755-8.684c0,0-17.932-22.285-21.727-62.271c-0.724-7.615,3.104-13.647,8.102-17.49
				C293.167,29.037,320.981,5.516,365.699,5.516 M365.699,3.516c-23.468,0-42.256,6.498-53.884,11.95
				c-12.303,5.768-19.271,11.485-19.902,12.013c-6.317,4.873-9.538,11.883-8.839,19.238c3.808,40.122,21.412,62.407,22.16,63.336
				l0.029,0.036l0.031,0.035c3.759,4.248,9.09,8.682,20.132,9.354l0.043,0.003l0.043,0.001c0.838,0.015,1.675,0.021,2.5,0.021
				c25.165,0,43.634-6.847,54.697-12.59c12.063-6.263,18.097-12.495,18.348-12.757l0.025-0.025l0.023-0.027
				c3.542-3.975,4.981-7.469,5.311-12.893c2.485-40.755-14.372-67.958-15.291-69.406c-3.509-5.823-10.755-7.546-16.221-7.965
				C371.834,3.625,368.741,3.516,365.699,3.516L365.699,3.516z"/>
		</g>
		<g>
			<g>
				<path fill="#F26522" d="M341.001,110.538c-10.815-0.659-15.615-5.172-18.654-8.577c0,0-17.841-21.994-21.634-61.446
					c-0.723-7.514,3.08-13.464,8.048-17.253c0,0,6.249-5.229,17.558-10.72C305.707,19.4,293.872,29.31,293.872,29.31
					c-4.967,3.789-8.771,9.738-8.048,17.253c3.793,39.45,21.635,61.446,21.635,61.446c3.039,3.406,7.839,7.917,18.654,8.576
					c24.443,0.438,42.739-5.542,54.985-11.683C370.338,108.357,356.992,110.824,341.001,110.538z"/>
			</g>
		</g>
		<path d="M359.441,77.011c-2.204-3.726-0.97-8.528,2.753-10.732c3.723-2.201,8.526-0.969,10.729,2.758
			c2.202,3.721,0.969,8.524-2.753,10.727C366.447,81.964,361.642,80.732,359.441,77.011z"/>
		
			<ellipse transform="matrix(-0.9984 0.0564 -0.0564 -0.9984 738.4054 119.3872)" fill="#FFFFFF" cx="367.517" cy="70.121" rx="1.912" ry="1.635"/>
		
			<ellipse transform="matrix(0.9781 0.2083 -0.2083 0.9781 10.9996 -78.5694)" fill="#FFFFFF" cx="378.572" cy="12.945" rx="7.41" ry="2.602"/>
		<circle fill="#FFFFFF" stroke="#000000" stroke-width="3.1249" cx="327.669" cy="62.162" r="28.186"/>
		
			<ellipse transform="matrix(0.9526 -0.3041 0.3041 0.9526 3.5324 119.5474)" fill="#FFFFFF" stroke="#000000" stroke-width="2.75" cx="385.595" cy="48.432" rx="20.969" ry="21.846"/>
		<circle cx="328.747" cy="58.371" r="19.096"/>
		<g>
			<path fill="#FFFFFF" d="M340.892,44.155c1.611,5.046-1.136,10.43-6.135,12.025c-5.001,1.596-10.362-1.199-11.972-6.247
				c-1.61-5.042,1.138-10.428,6.14-12.023C333.924,36.314,339.283,39.111,340.892,44.155z"/>
		</g>
		<path d="M398.752,43.562c-1.671-8.403-9.517-13.949-17.522-12.391c-8.007,1.562-13.14,9.636-11.469,18.038
			c1.672,8.403,9.515,13.95,17.522,12.392C395.289,60.039,400.424,51.967,398.752,43.562z"/>
		<g>
			<path fill="#FFFFFF" d="M371.139,39.908c0.84,4.22,4.749,7.011,8.732,6.236c3.985-0.776,6.535-4.826,5.697-9.047
				c-0.839-4.218-4.751-7.009-8.737-6.233C372.848,31.64,370.299,35.691,371.139,39.908z"/>
		</g>
	</g>
</g>
<g id="Face__x28_Outlined_x29_">
	<g>
		<g>
			<path fill="#F7941E" d="M404.419,81.091c2.489-40.825-14.996-68.233-14.996-68.233c-3.306-5.513-10.763-6.723-14.672-7.022
				c-49.983-3.52-81.584,23.202-81.584,23.202c-4.998,3.843-8.825,9.875-8.102,17.49c3.795,39.986,21.727,62.271,21.727,62.271
				c3.054,3.451,7.879,8.021,18.755,8.684c49.583,0.869,74.064-24.708,74.064-24.708C402.862,89.125,404.12,86.004,404.419,81.091z"
				/>
			<path d="M365.699,5.516c2.944,0,5.964,0.102,9.051,0.319c3.91,0.3,11.366,1.51,14.672,7.022c0,0,17.485,27.408,14.996,68.233
				c-0.299,4.913-1.557,8.034-4.808,11.684c0,0-23.665,24.729-71.6,24.729c-0.812,0-1.638-0.007-2.464-0.021
				c-10.876-0.663-15.702-5.232-18.755-8.684c0,0-17.932-22.285-21.727-62.271c-0.724-7.615,3.104-13.647,8.102-17.49
				C293.167,29.037,320.981,5.516,365.699,5.516 M365.699,3.516c-23.468,0-42.256,6.498-53.884,11.95
				c-12.303,5.768-19.271,11.485-19.902,12.013c-6.316,4.873-9.538,11.883-8.839,19.238c3.808,40.122,21.412,62.407,22.16,63.336
				l0.029,0.036l0.031,0.035c3.759,4.248,9.09,8.682,20.132,9.354l0.043,0.003l0.043,0.001c0.838,0.015,1.675,0.021,2.5,0.021
				c25.165,0,43.634-6.847,54.697-12.59c12.063-6.263,18.097-12.495,18.348-12.757l0.025-0.025l0.023-0.027
				c3.542-3.975,4.981-7.469,5.311-12.893c2.485-40.755-14.372-67.958-15.291-69.406c-3.509-5.823-10.755-7.546-16.221-7.965
				C371.834,3.625,368.741,3.516,365.699,3.516L365.699,3.516z"/>
		</g>
		<g>
			<path fill="#F26522" d="M341.001,110.538c-10.815-0.659-15.615-5.172-18.654-8.577c0,0-17.841-21.994-21.634-61.446
				c-0.723-7.514,3.08-13.464,8.048-17.253c0,0,6.249-5.229,17.558-10.72C305.707,19.4,293.872,29.31,293.872,29.31
				c-4.967,3.789-8.771,9.738-8.048,17.253c3.793,39.45,21.635,61.446,21.635,61.446c3.039,3.406,7.839,7.917,18.654,8.576
				c24.443,0.438,42.739-5.542,54.985-11.683C370.338,108.357,356.992,110.824,341.001,110.538z"/>
		</g>
		<path d="M359.441,77.011c-2.204-3.726-0.97-8.528,2.753-10.732c3.723-2.201,8.526-0.969,10.729,2.758
			c2.202,3.721,0.969,8.524-2.753,10.727C366.447,81.964,361.642,80.732,359.441,77.011z"/>
		
			<ellipse transform="matrix(-0.9984 0.0564 -0.0564 -0.9984 738.4054 119.3872)" fill="#FFFFFF" cx="367.517" cy="70.121" rx="1.912" ry="1.635"/>
		
			<ellipse transform="matrix(0.9781 0.2083 -0.2083 0.9781 10.9996 -78.5694)" fill="#FFFFFF" cx="378.572" cy="12.945" rx="7.41" ry="2.602"/>
		<g>
			<circle fill="#FFFFFF" cx="327.669" cy="62.162" r="28.186"/>
			<path d="M327.664,91.919c-12.994,0-24.38-8.323-28.334-20.712c-4.987-15.624,3.669-32.394,19.296-37.383
				c2.944-0.939,5.989-1.416,9.051-1.416c12.994,0,24.38,8.322,28.333,20.709c2.417,7.569,1.74,15.627-1.904,22.688
				c-3.645,7.062-9.82,12.281-17.389,14.697C333.772,91.442,330.726,91.919,327.664,91.919z M327.676,35.533
				c-2.739,0-5.465,0.427-8.101,1.268c-13.986,4.465-21.732,19.474-17.27,33.456c3.539,11.088,13.729,18.537,25.358,18.537
				c2.74,0,5.466-0.426,8.103-1.268c6.773-2.162,12.3-6.833,15.562-13.153s3.867-13.532,1.705-20.306
				C349.494,42.981,339.305,35.533,327.676,35.533z"/>
		</g>
		<g>
			
				<ellipse transform="matrix(0.9526 -0.3041 0.3041 0.9526 3.5324 119.5474)" fill="#FFFFFF" cx="385.595" cy="48.432" rx="20.969" ry="21.846"/>
			<path d="M386.088,71.58c-9.905,0-18.657-6.572-21.779-16.354c-3.893-12.195,2.488-25.167,14.226-28.914
				c2.133-0.681,4.343-1.026,6.569-1.026c9.904,0,18.656,6.571,21.778,16.352c1.883,5.898,1.446,12.152-1.229,17.607
				c-2.685,5.476-7.3,9.491-12.996,11.309C390.524,71.234,388.314,71.58,386.088,71.58z M385.104,28.036
				c-1.942,0-3.871,0.302-5.732,0.896c-10.293,3.287-15.875,14.707-12.442,25.459c2.757,8.637,10.456,14.439,19.159,14.439
				c1.941,0,3.87-0.302,5.732-0.896c4.976-1.588,9.011-5.104,11.363-9.9c2.362-4.814,2.745-10.341,1.079-15.561
				C401.505,33.838,393.806,28.036,385.104,28.036z"/>
		</g>
		<circle cx="328.747" cy="58.371" r="19.096"/>
		<g>
			<path fill="#FFFFFF" d="M340.892,44.155c1.611,5.046-1.136,10.43-6.135,12.025c-5.001,1.596-10.362-1.199-11.972-6.247
				c-1.61-5.042,1.138-10.428,6.14-12.023C333.924,36.314,339.283,39.111,340.892,44.155z"/>
		</g>
		<path d="M398.752,43.562c-1.671-8.403-9.517-13.949-17.522-12.391c-8.007,1.562-13.14,9.636-11.469,18.038
			c1.672,8.403,9.515,13.95,17.522,12.392C395.289,60.039,400.424,51.967,398.752,43.562z"/>
		<g>
			<path fill="#FFFFFF" d="M371.139,39.908c0.84,4.22,4.749,7.011,8.732,6.236c3.985-0.776,6.535-4.826,5.697-9.047
				c-0.839-4.218-4.751-7.009-8.737-6.233C372.848,31.64,370.299,35.691,371.139,39.908z"/>
		</g>
	</g>
</g>
</svg>
