<?xml version="1.0" encoding="UTF-8"?>
<svg id="Layer_1" xmlns="http://www.w3.org/2000/svg" version="1.1" viewBox="0 0 125.05 115.99">
  <!-- Generator: Adobe Illustrator 29.5.1, SVG Export Plug-In . SVG Version: 2.1.0 Build 141)  -->
  <defs>
    <style>
      .st0 {
        fill: #f26522;
      }

      .st1 {
        fill: #fff;
      }

      .st2 {
        fill: #f7941e;
      }
    </style>
  </defs>
  <g id="Face__x28_Outlined_x29_">
    <g>
      <g>
        <path class="st2" d="M121.44,77.58c2.49-40.83-15-68.23-15-68.23-3.31-5.51-10.76-6.72-14.67-7.02C41.79-1.2,10.19,25.52,10.19,25.52c-5,3.84-8.83,9.88-8.1,17.49,3.8,39.99,21.73,62.27,21.73,62.27,3.05,3.45,7.88,8.02,18.76,8.68,49.58.87,74.06-24.71,74.06-24.71,3.25-3.65,4.51-6.77,4.81-11.68Z"/>
        <path d="M82.72,2c2.94,0,5.96.1,9.05.32,3.91.3,11.37,1.51,14.67,7.02,0,0,17.48,27.41,15,68.23-.3,4.91-1.56,8.03-4.81,11.68,0,0-23.67,24.73-71.6,24.73-.81,0-1.64,0-2.46-.02-10.88-.66-15.7-5.23-18.76-8.68,0,0-17.93-22.29-21.73-62.27-.72-7.62,3.1-13.65,8.1-17.49,0,0,27.82-23.52,72.53-23.52M82.72,0c-23.47,0-42.26,6.5-53.88,11.95-12.3,5.77-19.27,11.49-19.9,12.01C2.62,28.84-.6,35.85.09,43.2c3.81,40.12,21.41,62.41,22.16,63.34l.03.04.03.04c3.76,4.25,9.09,8.68,20.13,9.35h.04s.04,0,.04,0c.84.01,1.67.02,2.5.02,25.17,0,43.63-6.85,54.7-12.59,12.06-6.26,18.1-12.5,18.35-12.76l.02-.03.02-.03c3.54-3.97,4.98-7.47,5.31-12.89,2.48-40.76-14.37-67.96-15.29-69.41-3.51-5.82-10.76-7.55-16.22-7.97-3.07-.22-6.16-.32-9.2-.32h0Z"/>
      </g>
      <path class="st0" d="M58.02,107.02c-10.82-.66-15.61-5.17-18.65-8.58,0,0-17.84-21.99-21.63-61.45-.72-7.51,3.08-13.46,8.05-17.25,0,0,6.25-5.23,17.56-10.72C22.73,15.88,10.89,25.79,10.89,25.79c-4.97,3.79-8.77,9.74-8.05,17.25,3.79,39.45,21.64,61.45,21.64,61.45,3.04,3.41,7.84,7.92,18.65,8.58,24.44.44,42.74-5.54,54.99-11.68-10.76,3.45-24.11,5.92-40.1,5.64Z"/>
      <path d="M76.46,73.5c-2.2-3.73-.97-8.53,2.75-10.73,3.72-2.2,8.53-.97,10.73,2.76,2.2,3.72.97,8.52-2.75,10.73-3.72,2.2-8.53.97-10.73-2.75Z"/>
      <ellipse class="st1" cx="84.54" cy="66.59" rx="1.91" ry="1.63" transform="translate(-3.62 4.87) rotate(-3.23)"/>
      <ellipse class="st1" cx="95.6" cy="9.43" rx="2.6" ry="7.41" transform="translate(66.46 100.98) rotate(-77.98)"/>
      <g>
        <circle class="st1" cx="44.69" cy="58.65" r="28.19"/>
        <path d="M44.68,88.4c-12.99,0-24.38-8.32-28.33-20.71-4.99-15.62,3.67-32.39,19.3-37.38,2.94-.94,5.99-1.42,9.05-1.42,12.99,0,24.38,8.32,28.33,20.71,2.42,7.57,1.74,15.63-1.9,22.69-3.64,7.06-9.82,12.28-17.39,14.7-2.95.94-5.99,1.42-9.05,1.42ZM44.7,32.02c-2.74,0-5.46.43-8.1,1.27-13.99,4.47-21.73,19.47-17.27,33.46,3.54,11.09,13.73,18.54,25.36,18.54,2.74,0,5.47-.43,8.1-1.27,6.77-2.16,12.3-6.83,15.56-13.15s3.87-13.53,1.7-20.31c-3.54-11.09-13.73-18.53-25.36-18.53Z"/>
      </g>
      <g>
        <ellipse class="st1" cx="102.6" cy="44.91" rx="20.97" ry="21.85" transform="translate(-8.8 33.33) rotate(-17.7)"/>
        <path d="M103.11,68.06c-9.9,0-18.66-6.57-21.78-16.35-3.89-12.19,2.49-25.17,14.23-28.91,2.13-.68,4.34-1.03,6.57-1.03,9.9,0,18.66,6.57,21.78,16.35,1.88,5.9,1.45,12.15-1.23,17.61-2.68,5.48-7.3,9.49-13,11.31-2.13.68-4.34,1.03-6.57,1.03ZM102.12,24.52c-1.94,0-3.87.3-5.73.9-10.29,3.29-15.88,14.71-12.44,25.46,2.76,8.64,10.46,14.44,19.16,14.44,1.94,0,3.87-.3,5.73-.9,4.98-1.59,9.01-5.1,11.36-9.9,2.36-4.81,2.74-10.34,1.08-15.56-2.76-8.63-10.46-14.44-19.16-14.44Z"/>
      </g>
      <circle cx="45.77" cy="54.85" r="19.1"/>
      <path class="st1" d="M57.91,40.64c1.61,5.05-1.14,10.43-6.14,12.03-5,1.6-10.36-1.2-11.97-6.25-1.61-5.04,1.14-10.43,6.14-12.02,5-1.6,10.36,1.2,11.97,6.24Z"/>
      <path d="M115.77,40.05c-1.67-8.4-9.52-13.95-17.52-12.39-8.01,1.56-13.14,9.64-11.47,18.04,1.67,8.4,9.52,13.95,17.52,12.39,8.01-1.56,13.14-9.63,11.47-18.04Z"/>
      <path class="st1" d="M88.16,36.39c.84,4.22,4.75,7.01,8.73,6.24,3.98-.78,6.54-4.83,5.7-9.05-.84-4.22-4.75-7.01-8.74-6.23-3.98.78-6.53,4.83-5.69,9.04Z"/>
    </g>
  </g>
</svg>